# AST/ASF file generated using VICON BodyLanguage
# -----------------------------------------------
:version 1.10
:name VICON
:units
  mass 1.0
  length 0.45
  angle deg
:documentation
   .ast/.asf automatically generated from VICON data using
   VICON BodyBuilder and BodyLanguage model FoxedUp or BRILLIANT.MOD
:root
   order TX TY TZ RX RY RZ
   axis XYZ
   position 0 0 0  
   orientation 0 0 0 
:bonedata
  begin
     id 1 
     name lhipjoint
     direction 0.612567 -0.751349 0.245431 
     length 2.42285 
     axis 0 0 0  XYZ
  end
  begin
     id 2 
     name lfemur
     direction 0.34202 -0.939693 0  
     length 7.11304  
     axis 0 0 20  XYZ
    dof rx ry rz
    limits (-160.0 20.0)
           (-70.0 70.0)
           (-60.0 70.0)
  end
  begin
     id 3 
     name ltibia
     direction 0.34202 -0.939693 0   
     length 7.84529   
     axis 0 0 20   XYZ
    dof rx
    limits (-10.0 170.0)
  end
  begin
     id 4 
     name lfoot
     direction 0.0779239 -0.214094 0.9737   
     length 1.97176   
     axis -90 7.62852e-016 20   XYZ
    dof rx rz
    limits (-45.0 90.0)
           (-70.0 20.0)
  end
  begin
     id 5 
     name ltoes
     direction 1.53565e-011 -4.21709e-011 1   
     length 0.993197   
     axis -90 7.62852e-016 20   XYZ
    dof rx
    limits (-90.0 20.0)
  end
  begin
     id 6 
     name rhipjoint
     direction -0.665722 -0.709315 0.231701   
     length 2.56642  
     axis 0 0 0  XYZ 
  end
  begin
     id 7 
     name rfemur
     direction -0.34202 -0.939693 0   
     length 7.32108   
     axis 0 0 -20   XYZ
    dof rx ry rz
    limits (-160.0 20.0)
           (-70.0 70.0)
           (-70.0 60.0)
  end
  begin
     id 8 
     name rtibia
     direction -0.34202 -0.939693 0   
     length 7.81254   
     axis 0 0 -20   XYZ
    dof rx
    limits (-10.0 170.0)
 end
 begin
     id 9 
     name rfoot
     direction -0.0832806 -0.228812 0.969902   
     length 2.08278  
     axis -90 -7.62852e-016 -20   XYZ
    dof rx rz
    limits (-45.0 90.0)
           (-20.0 70.0)
  end
  begin
     id 10 
     name rtoes
     direction -1.53589e-011 -4.22086e-011 1   
     length 1.04609   
     axis -90 -7.62852e-016 -20   XYZ
    dof rx
    limits (-90.0 20.0)
  end
  begin
     id 11 
     name lowerback
     direction -0.00506013 0.988403 -0.151766   
     length 2.01978   
     axis 0 0 0   XYZ
    dof rx ry rz
    limits (-20.0 45.0)
           (-30.0 30.0)
           (-30.0 30.0)
  end
  begin
     id 12 
     name upperback
     direction -0.00836389 0.99968 0.0238859   
     length 2.01276   
     axis 0 0 0   XYZ
    dof rx ry rz
    limits (-20.0 45.0)
           (-30.0 30.0)
           (-30.0 30.0)
  end
  begin
     id 13 
     name thorax
     direction -0.00684136 0.995386 0.0957043   
     length 2.07303   
     axis 0 0 0   XYZ
    dof rx ry rz
    limits (-20.0 45.0)
           (-30.0 30.0)
           (-30.0 30.0)
  end
  begin
     id 14 
     name lowerneck
     direction -0.0161045 0.999661 0.0204485   
     length 1.91243   
     axis 0 0 0   XYZ
    dof rx ry rz
    limits (-20.0 45.0)
           (-30.0 30.0)
           (-30.0 30.0)
  end
  begin
     id 15 
     name upperneck
     direction 0.0553583 0.990946 -0.122319   
     length 1.91574   
     axis 0 0 0   XYZ
    dof rx ry rz
    limits (-20.0 45.0)
           (-30.0 30.0)
           (-30.0 30.0)
  end
  begin
     id 16
     name head
     direction 0.0180273 0.998839 -0.0446756  
     length 1.92693  
     axis 0 0 0   XYZ
    dof rx ry rz
    limits (-20.0 45.0)
           (-30.0 30.0)
           (-30.0 30.0)
  end
  begin
     id 17 
     name lclavicle
     direction 0.945646 0.319323 -0.0615358  
     length 4.0076  
     axis 0 0 0   XYZ
    dof ry rz
    limits (-20.0 10.0)
           (0.0 20.0)
  end
  begin
     id 18 
     name lhumerus
     direction 1 -4.48967e-011 -2.79996e-027   
     length 5.64147   
     axis 180 -30 -90   XYZ
    dof rx ry rz
    limits (-60.0 90.0)
           (-90.0 90.0)
           (-90.0 90.0)
  end
  begin
     id 19
     name lradius
     direction 1 -4.48976e-011 -9.5122e-027   
     length 2.86444   
     axis 180 -30 -90   XYZ
    dof rx
    limits (-10.0 170.0)
  end
  begin
     id 20
     name lwrist
     direction 1 -4.48983e-011 -1.24047e-026   
     length 1.43222   
     axis 9.05591e-015 90 90   XYZ
    dof ry
    limits (-180.0 0.0)
 end
  begin
     id 21 
     name lhand
     direction 1 -4.4892e-011 -2.48094e-026   
     length 0.722123   
     axis 1.58305e-014 90 90   XYZ
    dof rx rz
    limits (-90.0 90.0)
           (-45.0 45.0)
  end
  begin
     id 22 
     name lfingers
     direction 1 -4.48895e-011 -4.96187e-026   
     length 0.582194   
     axis 3.1661e-014 90 90   XYZ
    dof rx
    limits (0.0 90.0)
  end
  begin
     id 23
     name lthumb
     direction 0.707107 -6.34961e-011 0.707107   
     length 0.835918   
     axis -90 45 2.85299e-015   XYZ
    dof rx rz
    limits (-45.0 45.0)
           (-45.0 45.0)
  end
  begin
     id 24 
     name rclavicle
     direction -0.932635 0.324218 -0.15835   
     length 3.65819  
     axis 0 0 0   XYZ 
    dof ry rz
    limits (-10.0 20.0)
           (-20.0 0.0)
  end
  begin
     id 25 
     name rhumerus
     direction -1 -4.48965e-011 -4.02296e-027  
     length 5.44729   
     axis 180 30 90   XYZ
    dof rx ry rz
    limits (-90.0 60.0)
           (-90.0 90.0)
           (-90.0 90.0)
  end
  begin
     id 26 
     name rradius
     direction -1 -4.48957e-011 -8.81087e-027   
     length 3.08821   
     axis 180 30 90   XYZ
    dof rx
    limits (-10.0 170.0)
  end
  begin
     id 27 
     name rwrist
     direction -1 -4.49015e-011 -1.24047e-026   
     length 1.5441   
     axis 9.05591e-015 -90 -90   XYZ
    dof ry
    limits (-180.0 0.0)
  end
  begin
     id 28
     name rhand
     direction -1 -4.4891e-011 -2.48094e-026   
     length 0.821049   
     axis 1.58305e-014 -90 -90   XYZ
    dof rx rz
    limits (-90.0 90.0)
           (-45.0 45.0)
  end
  begin
     id 29
     name rfingers
     direction -1 -4.48985e-011 -4.96187e-026   
     length 0.661951   
     axis 3.1661e-014 -90 -90   XYZ
    dof rx
    limits (0.0 90.0)
  end
  begin
     id 30
     name rthumb
     direction -0.707107 -6.34906e-011 0.707107   
     length 0.950433   
     axis -90 -45 -2.85299e-015   XYZ
    dof rx rz
    limits (-45.0 45.0)
           (-45.0 45.0)
  end
:hierarchy
  begin
    root lhipjoint rhipjoint lowerback
    lhipjoint lfemur
    lfemur ltibia
    ltibia lfoot
    lfoot ltoes
    rhipjoint rfemur
    rfemur rtibia
    rtibia rfoot
    rfoot rtoes
    lowerback upperback
    upperback thorax
    thorax lowerneck lclavicle rclavicle
    lowerneck upperneck
    upperneck head
    lclavicle lhumerus
    lhumerus lradius
    lradius lwrist
    lwrist lhand lthumb
    lhand lfingers
    rclavicle rhumerus
    rhumerus rradius
    rradius rwrist
    rwrist rhand rthumb
    rhand rfingers
  end

#!OML:ASF F:\VICON\USERDATA\INSTALL\rory3\rory3.ASF
:FULLY-SPECIFIED
:DEGREES
1
root 3.27954 17.507 0.0816583 -5.68841 88.0945 -3.39074
lowerback 2.75083 0.327368 3.17041
upperback 1.35396 0.522881 -1.13195
thorax -0.11342 0.285353 -2.95575
lowerneck -4.74832 -4.97371 -4.89376
upperneck 9.07103 -6.91034 7.2566
head 3.90499 -3.21699 2.66108
rclavicle 1.4474e-015 -3.97569e-016
rhumerus -29.2882 10.7525 -95.0442
rradius 29.9039
rwrist 11.3146
rhand -3.03542 14.1888
rfingers 7.12502
rthumb 22.68 -14.4984
lclavicle 1.4474e-015 -3.97569e-016
lhumerus -30.5863 -31.1535 101.094
lradius 28.4672
lwrist 47.4246
lhand -9.64708 8.24673
lfingers 7.12502
lthumb 16.3235 37.5797
rfemur -2.69252 -0.86931 18.3348
rtibia 24.0863
rfoot -21.2386 -3.70013
rtoes 0
lfemur -2.54001 3.68338 -15.6987
ltibia 19.9183
lfoot -14.5784 -5.55262
ltoes -4.29811
2
root 3.27923 17.5094 0.0821316 -2.25419 88.0612 0.0304447
lowerback 2.72993 0.326377 3.0345
upperback 1.36879 0.517775 -1.14929
thorax -0.0881208 0.283017 -2.89667
lowerneck -4.80653 -4.94592 -4.83883
upperneck 9.06443 -6.86984 7.1948
head 3.90618 -3.19731 2.63437
rclavicle -1.125e-014 1.05356e-014
rhumerus -29.3261 10.9111 -95.0825
rradius 29.9899
rwrist 11.1883
rhand -3.16812 14.1381
rfingers 7.12502
rthumb 22.5526 -14.5646
lclavicle -1.125e-014 1.05356e-014
lhumerus -30.4832 -31.1142 101.027
lradius 28.4329
lwrist 47.1658
lhand -9.48989 8.42221
lfingers 7.12502
lthumb 16.4748 37.7427
rfemur -2.73194 -0.86013 18.2087
rtibia 24.115
rfoot -21.2437 -3.65258
rtoes 0
lfemur -2.48462 3.65832 -15.8347
ltibia 19.8116
lfoot -14.6096 -5.42996
ltoes -4.6437
3
root 3.27955 17.5098 0.0819867 -2.21807 88.0238 0.0661927
lowerback 2.71698 0.32627 3.01208
upperback 1.37674 0.516744 -1.12518
thorax -0.0732563 0.282681 -2.85902
lowerneck -4.79708 -4.939 -4.88825
upperneck 9.02749 -6.85777 7.22092
head 3.89525 -3.19279 2.6515
rclavicle 5.3734e-015 -2.5842e-015
rhumerus -29.3216 10.9572 -95.0544
rradius 30.0109
rwrist 11.1395
rhand -3.16625 14.1382
rfingers 7.12502
rthumb 22.5544 -14.5643
lclavicle 5.3734e-015 -2.5842e-015
lhumerus -30.5591 -31.2401 101.137
lradius 28.5137
lwrist 47.5064
lhand -9.69973 8.33077
lfingers 7.12502
lthumb 16.2728 37.6679
rfemur -2.75266 -0.852532 18.2004
rtibia 24.1366
rfoot -21.233 -3.58024
rtoes 0
lfemur -2.44384 3.62623 -15.843
ltibia 19.7626
lfoot -14.6418 -5.33817
ltoes -4.79356
4
root 3.27965 17.5098 0.082008 -1.13491 88.0029 1.16071
lowerback 2.71133 0.32664 2.96845
upperback 1.38721 0.51612 -1.12048
thorax -0.0598876 0.282576 -2.82948
lowerneck -4.71771 -4.92871 -4.91763
upperneck 8.92558 -6.84079 7.23819
head 3.85173 -3.18811 2.66517
rclavicle 1.06163e-014 4.17448e-015
rhumerus -29.3125 11.0442 -95.0472
rradius 30.0101
rwrist 11.0336
rhand -3.20395 14.155
rfingers 7.12502
rthumb 22.5182 -14.5519
lclavicle 1.06163e-014 4.17448e-015
lhumerus -30.6293 -31.3338 101.226
lradius 28.5882
lwrist 47.7919
lhand -9.8706 8.31185
lfingers 7.12502
lthumb 16.1083 37.6624
rfemur -2.75019 -0.842673 18.1573
rtibia 24.1507
rfoot -21.2516 -3.51758
rtoes 0
lfemur -2.41255 3.61266 -15.888
ltibia 19.7294
lfoot -14.6194 -5.3021
ltoes -4.80358
5
root 3.27951 17.5091 0.081887 -0.101437 87.9728 2.20489
lowerback 2.71712 0.342096 2.93551
upperback 1.39059 0.536181 -1.12959
thorax -0.0584854 0.292607 -2.82088
lowerneck -4.65253 -4.92959 -4.91452
upperneck 8.82916 -6.84068 7.24909
head 3.81201 -3.19049 2.67031
rclavicle -2.59041e-015 -8.74653e-015
rhumerus -29.3172 10.998 -95.0329
rradius 30.0077
rwrist 11.0282
rhand -3.25826 14.1946
rfingers 7.12502
rthumb 22.4661 -14.5187
lclavicle -2.59041e-015 -8.74653e-015
lhumerus -30.5745 -31.2471 101.177
lradius 28.5016
lwrist 47.8665
lhand -9.70756 8.15146
lfingers 7.12502
lthumb 16.2652 37.4892
rfemur -2.74788 -0.821967 18.1156
rtibia 24.1472
rfoot -21.2545 -3.50512
rtoes 0
lfemur -2.40426 3.66917 -15.9278
ltibia 19.7318
lfoot -14.5339 -5.33114
ltoes -4.63389
6
root 3.28057 17.5087 0.0812466 -0.080789 87.9649 2.23553
lowerback 2.70323 0.349585 2.95933
upperback 1.3992 0.546359 -1.14717
thorax -0.040716 0.298361 -2.85249
lowerneck -4.62711 -4.93359 -4.86258
upperneck 8.76967 -6.8495 7.26623
head 3.78921 -3.19374 2.66774
rclavicle 3.721e-015 -1.98785e-015
rhumerus -29.3205 10.9093 -95.0214
rradius 30.0273
rwrist 11.0497
rhand -3.24611 14.2441
rfingers 7.12502
rthumb 22.4777 -14.4678
lclavicle 3.721e-015 -1.98785e-015
lhumerus -30.4627 -31.01 101.009
lradius 28.3394
lwrist 47.9217
lhand -9.35903 7.69127
lfingers 7.12502
lthumb 16.6008 37.0013
rfemur -2.72974 -0.840045 18.1107
rtibia 24.1395
rfoot -21.248 -3.53113
rtoes 0
lfemur -2.40033 3.69576 -15.9368
ltibia 19.7556
lfoot -14.3625 -5.34721
ltoes -3.86943
7
root 3.28136 17.5099 0.082277 -1.06485 87.9799 1.24122
lowerback 2.67518 0.333028 2.97489
upperback 1.40893 0.523804 -1.12167
thorax -0.0167385 0.287585 -2.83411
lowerneck -4.64474 -4.93714 -4.88789
upperneck 8.73338 -6.85223 7.28573
head 3.7829 -3.19547 2.67742
rclavicle -4.15584e-015 -2.98177e-015
rhumerus -29.3083 10.9348 -95.0145
rradius 30.0287
rwrist 11.0609
rhand -3.27947 14.2867
rfingers 7.12502
rthumb 22.4457 -14.429
lclavicle -4.15584e-015 -2.98177e-015
lhumerus -30.3654 -30.7777 100.91
lradius 28.2443
lwrist 47.8481
lhand -9.17958 7.45662
lfingers 7.12502
lthumb 16.7736 36.7521
rfemur -2.71891 -0.863612 18.1562
rtibia 24.1229
rfoot -21.2728 -3.55861
rtoes 0
lfemur -2.43227 3.70407 -15.8955
ltibia 19.8028
lfoot -14.2985 -5.3881
ltoes -3.30218
8
root 3.27939 17.5097 0.0831208 -2.17208 87.9849 0.123857
lowerback 2.69278 0.315717 3.0054
upperback 1.39628 0.501856 -1.09444
thorax -0.0410908 0.275959 -2.8229
lowerneck -4.5651 -4.92323 -4.92556
upperneck 8.61953 -6.82956 7.30637
head 3.73583 -3.18835 2.69387
rclavicle -7.15935e-015 7.35503e-015
rhumerus -29.3246 11.0049 -95.0286
rradius 30.0228
rwrist 11.0612
rhand -3.32502 14.282
rfingers 7.12502
rthumb 22.402 -14.439
lclavicle -7.15935e-015 7.35503e-015
lhumerus -30.457 -30.9123 101.02
lradius 28.3703
lwrist 47.8274
lhand -9.40853 7.70929
lfingers 7.12502
lthumb 16.5532 37.0233
rfemur -2.73271 -0.853729 18.208
rtibia 24.1168
rfoot -21.2533 -3.59336
rtoes 0
lfemur -2.46238 3.69168 -15.8488
ltibia 19.8246
lfoot -14.3195 -5.3861
ltoes -3.57565
9
root 3.27664 17.5093 0.0845989 -3.37722 87.9997 -1.09075
lowerback 2.72055 0.298776 3.02413
upperback 1.3856 0.480506 -1.06818
thorax -0.0691878 0.264569 -2.80613
lowerneck -4.49115 -4.90783 -4.93987
upperneck 8.49624 -6.80634 7.33042
head 3.68618 -3.18003 2.70755
rclavicle -6.50399e-015 8.54774e-015
rhumerus -29.3358 11.0919 -95.037
rradius 30.0435
rwrist 10.9899
rhand -3.35409 14.3228
rfingers 7.12502
rthumb 22.3741 -14.4015
lclavicle -6.50399e-015 8.54774e-015
lhumerus -30.5381 -31.0642 101.15
lradius 28.509
lwrist 47.6162
lhand -9.88527 8.23184
lfingers 7.12502
lthumb 16.0941 37.5835
rfemur -2.75162 -0.818189 18.2674
rtibia 24.1174
rfoot -21.2444 -3.6137
rtoes 0
lfemur -2.4898 3.66737 -15.797
ltibia 19.8269
lfoot -14.3091 -5.37447
ltoes -3.90398
10
root 3.27744 17.5102 0.085428 -1.17707 88.0062 1.11271
lowerback 2.71047 0.29056 2.91963
upperback 1.39776 0.466902 -1.06886
thorax -0.0530181 0.257778 -2.7475
lowerneck -4.46886 -4.90829 -4.94276
upperneck 8.37429 -6.80151 7.32294
head 3.64527 -3.18097 2.70745
rclavicle 5.3734e-016 1.98785e-016
rhumerus -29.3199 11.1062 -95.0156
rradius 30.0537
rwrist 10.9552
rhand -3.34419 14.3558
rfingers 7.12502
rthumb 22.3836 -14.3674
lclavicle 5.3734e-016 1.98785e-016
lhumerus -30.5926 -31.2047 101.242
lradius 28.6214
lwrist 47.6239
lhand -10.1177 8.41463
lfingers 7.12502
lthumb 15.8703 37.7843
rfemur -2.74582 -0.847916 18.178
rtibia 24.1255
rfoot -21.2463 -3.61051
rtoes 0
lfemur -2.48037 3.60864 -15.8894
ltibia 19.8245
lfoot -14.3187 -5.31303
ltoes -4.10046
11
root 3.27891 17.5108 0.0850262 -0.0788937 87.997 2.23201
lowerback 2.71443 0.297438 2.89944
upperback 1.41146 0.475829 -1.08724
thorax -0.0405777 0.262723 -2.75526
lowerneck -4.44902 -4.92037 -4.90169
upperneck 8.29188 -6.81663 7.31057
head 3.61632 -3.18961 2.69736
rclavicle -5.19946e-015 8.94531e-016
rhumerus -29.3272 11.1711 -95.0456
rradius 30.0845
rwrist 10.8442
rhand -3.36948 14.2243
rfingers 7.12502
rthumb 22.3593 -14.5018
lclavicle -5.19946e-015 8.94531e-016
lhumerus -30.6295 -31.2684 101.245
lradius 28.692
lwrist 47.6558
lhand -10.1306 8.43715
lfingers 7.12502
lthumb 15.8579 37.8078
rfemur -2.72668 -0.879387 18.1246
rtibia 24.1402
rfoot -21.2547 -3.56479
rtoes 0
lfemur -2.44897 3.63755 -15.9306
ltibia 19.8135
lfoot -14.2913 -5.34465
ltoes -3.67729
